<?xml version="1.0" encoding="UTF-8"?>
<svg version="1.1" xmlns="http://www.w3.org/2000/svg" width="512" height="512">
<path d="M0 0 C1.04679932 0.72908569 1.04679932 0.72908569 2.11474609 1.47290039 C16.36110501 11.71300429 28.13028027 26.91725022 35.0625 43 C35.3125 46 35.3125 46 35.0625 48 C35.7225 48 36.3825 48 37.0625 48 C37.17722656 48.88042969 37.29195313 49.76085937 37.41015625 50.66796875 C38.20528168 54.58276663 39.04926005 57.53368938 41.0625 61 C44.8283886 63.05451098 48.28875308 64.10531818 52.43359375 65.0703125 C55.88490986 65.95450328 58.10506596 67.08636621 61.0625 69 C62.279375 69.4125 63.49625 69.825 64.75 70.25 C70.16077876 72.20276226 74.49667959 75.57037453 79.0625 79 C79.93261719 79.64066406 80.80273438 80.28132813 81.69921875 80.94140625 C86.38878951 84.46778678 86.38878951 84.46778678 88.0625 86 C88.0625 86.66 88.0625 87.32 88.0625 88 C88.64 88.226875 89.2175 88.45375 89.8125 88.6875 C92.64623895 90.34051439 94.09394113 92.39642213 96.0625 95 C96.52011719 95.44730469 96.97773438 95.89460938 97.44921875 96.35546875 C103.99288495 103.02588878 113.62688687 115.30244809 114.25 124.8828125 C114.188125 125.58148438 114.12625 126.28015625 114.0625 127 C114.7225 127 115.3825 127 116.0625 127 C117.99357041 132.35598774 119.3568618 137.35489443 120.0625 143 C120.3925 143.33 120.7225 143.66 121.0625 144 C122.44393631 150.77098361 122.20972743 157.6169071 122.1875 164.5 C122.19136719 165.69753906 122.19523437 166.89507812 122.19921875 168.12890625 C122.18685826 179.29043015 120.33957823 188.59457573 116.625 199.125 C116.21378906 200.30320312 115.80257813 201.48140625 115.37890625 202.6953125 C114.17733523 205.71171928 112.77569054 208.25510907 111.0625 211 C110.670625 212.03125 110.27875 213.0625 109.875 214.125 C100.28462491 237.03257987 76.22721023 253.57746885 54.3515625 263.19140625 C51.50618297 264.19651472 49.05665917 264.13926322 46.0625 264 C46.0625 264.66 46.0625 265.32 46.0625 266 C38.26072162 268.52742835 31.23973649 269.43246167 23.06321716 269.38095093 C21.90522883 269.3856309 20.7472405 269.39031087 19.55416161 269.39513266 C15.700621 269.40703283 11.8474393 269.39764466 7.99389648 269.38818359 C5.22034986 269.39060218 2.44681814 269.39748667 -0.32672119 269.40411377 C-7.06169341 269.41741234 -13.79656499 269.41459086 -20.53154106 269.40587585 C-26.00745986 269.39908494 -31.48335057 269.39818864 -36.95927238 269.4014473 C-37.740322 269.401907 -38.52137161 269.40236669 -39.32608939 269.40284032 C-40.91304621 269.40379955 -42.50000303 269.40477219 -44.08695983 269.4057581 C-58.94684214 269.41430049 -73.80666881 269.40449567 -88.66654199 269.388357 C-101.40329216 269.37495222 -114.13996029 269.37728545 -126.87670898 269.39111328 C-141.68704052 269.40718492 -156.49732339 269.41347939 -171.30766243 269.40427649 C-172.8882894 269.40332089 -174.46891639 269.40237778 -176.04954338 269.4014473 C-176.8271346 269.40098447 -177.60472582 269.40052164 -178.40588041 269.40004479 C-183.87258926 269.39745985 -189.3392671 269.40181513 -194.80597115 269.40888596 C-201.47174753 269.41731866 -208.13741799 269.41498361 -214.80318231 269.39904372 C-218.20096992 269.39118504 -221.59843588 269.38965584 -224.99624443 269.39799118 C-228.68607155 269.40620744 -232.375405 269.39588323 -236.06520081 269.38095093 C-237.12970744 269.38764309 -238.19421408 269.39433526 -239.29097849 269.40123022 C-245.98863236 269.34877661 -251.64451597 268.27469391 -257.9375 266 C-258.66066754 265.74614293 -259.38383509 265.49228585 -260.1289168 265.23073614 C-262.08563406 264.53191677 -264.01152503 263.7794712 -265.9375 263 C-266.64519531 262.71382813 -267.35289062 262.42765625 -268.08203125 262.1328125 C-275.41300307 259.02581568 -282.82761115 255.15915099 -288.9375 250 C-288.9375 249.34 -288.9375 248.68 -288.9375 248 C-289.741875 247.6596875 -289.741875 247.6596875 -290.5625 247.3125 C-296.15097064 244.22413465 -300.15240437 239.87670213 -303.9375 234.8125 C-304.36683838 234.24442627 -304.79617676 233.67635254 -305.23852539 233.09106445 C-310.6475813 225.83451703 -315.06692548 218.61172355 -317.9375 210 C-318.494375 208.4840625 -318.494375 208.4840625 -319.0625 206.9375 C-319.9375 204 -319.9375 204 -320.4375 200.3125 C-320.71747994 196.87037035 -320.71747994 196.87037035 -322.9375 194 C-323.12097848 191.40935758 -323.1937393 188.92908851 -323.16796875 186.33984375 C-323.16751053 185.59416641 -323.16705231 184.84848907 -323.1665802 184.08021545 C-323.16356211 182.50585333 -323.15568902 180.93149408 -323.14331055 179.35717773 C-323.1250423 176.94308945 -323.12280101 174.5293846 -323.12304688 172.11523438 C-323.11813189 170.58593417 -323.11230366 169.05663658 -323.10546875 167.52734375 C-323.10435593 166.80336899 -323.1032431 166.07939423 -323.10209656 165.33348083 C-323.0535841 160.2321682 -323.0535841 160.2321682 -321.9375 158 C-321.2775 158 -320.6175 158 -319.9375 158 C-319.99035156 156.84113281 -320.04320312 155.68226563 -320.09765625 154.48828125 C-320.09069482 149.96633846 -319.03070771 146.36079068 -317.375 142.1875 C-316.97716309 141.15689453 -316.97716309 141.15689453 -316.57128906 140.10546875 C-314.1194327 134.00003315 -311.13482648 128.10602603 -306.9375 123 C-306.2775 123 -305.6175 123 -304.9375 123 C-304.710625 122.113125 -304.48375 121.22625 -304.25 120.3125 C-302.74639801 116.51769499 -301.02244714 114.63349146 -297.9375 112 C-296.9475 111.67 -295.9575 111.34 -294.9375 111 C-294.9375 110.34 -294.9375 109.68 -294.9375 109 C-293.16484547 107.36915783 -291.40627635 105.8997274 -289.5 104.4375 C-288.92886475 103.99857422 -288.35772949 103.55964844 -287.76928711 103.10742188 C-278.44521186 96.17805448 -266.9063078 89.08051631 -255.25 87.5 C-251.80787035 87.22002006 -251.80787035 87.22002006 -248.9375 85 C-246.67578125 84.8046875 -246.67578125 84.8046875 -244.25 84.875 C-243.44175781 84.89304687 -242.63351563 84.91109375 -241.80078125 84.9296875 C-241.18589844 84.95289063 -240.57101563 84.97609375 -239.9375 85 C-239.82921875 84.12214844 -239.7209375 83.24429688 -239.609375 82.33984375 C-238.03853533 74.53130935 -232.86852276 67.16377845 -227.9375 61 C-227.2775 61 -226.6175 61 -225.9375 61 C-225.66421875 60.40574219 -225.3909375 59.81148438 -225.109375 59.19921875 C-218.14208787 46.12394324 -199.34441297 38.15164761 -185.9375 34 C-184.9475 33.67 -183.9575 33.34 -182.9375 33 C-179.57217536 32.64978358 -176.19174632 32.53325671 -172.8125 32.375 C-171.89984375 32.3234375 -170.9871875 32.271875 -170.046875 32.21875 C-164.20640974 31.93587846 -158.73165755 32.20611747 -152.9375 33 C-152.56625 31.948125 -152.56625 31.948125 -152.1875 30.875 C-150.76569762 27.60485452 -149.06503712 24.858878 -146.9375 22 C-146.2775 22 -145.6175 22 -144.9375 22 C-144.5971875 21.195625 -144.5971875 21.195625 -144.25 20.375 C-142.48179911 17.17539839 -140.40079797 14.70962777 -137.9375 12 C-137.2775 12 -136.6175 12 -135.9375 12 C-135.6075 11.01 -135.2775 10.02 -134.9375 9 C-134.2775 9 -133.6175 9 -132.9375 9 C-132.9375 8.34 -132.9375 7.68 -132.9375 7 C-130.80970702 5.11726183 -128.6818411 3.35914743 -126.4375 1.625 C-125.46574829 0.87138184 -125.46574829 0.87138184 -124.47436523 0.10253906 C-120.14451791 -3.20063224 -115.95393646 -5.86256186 -110.9375 -8 C-109.14070322 -8.86902572 -107.3439877 -9.7382219 -105.54833984 -10.60961914 C-70.78607336 -27.28986577 -31.21338278 -21.78426943 0 0 Z " fill="#1EA1DC" transform="translate(354.9375,126)"/>
<path d="M0 0 C0 6.93 0 13.86 0 21 C-9.24 21.66 -18.48 22.32 -28 23 C-28 23.66 -28 24.32 -28 25 C-28.94101562 25.26554687 -29.88203125 25.53109375 -30.8515625 25.8046875 C-32.09679687 26.15789062 -33.34203125 26.51109375 -34.625 26.875 C-35.85476563 27.22304687 -37.08453125 27.57109375 -38.3515625 27.9296875 C-40.63724346 28.60021917 -42.91322127 29.30590663 -45.171875 30.0625 C-47.65035165 30.88409447 -50.07853191 31.55811841 -52.625 32.125 C-53.72714844 32.37636719 -53.72714844 32.37636719 -54.8515625 32.6328125 C-57 33 -57 33 -61 33 C-61 33.66 -61 34.32 -61 35 C-62.95649397 35.83764268 -64.91525556 36.66999059 -66.875 37.5 C-67.96554687 37.9640625 -69.05609375 38.428125 -70.1796875 38.90625 C-73 40 -73 40 -75 40 C-75 40.66 -75 41.32 -75 42 C-75.556875 42.226875 -76.11375 42.45375 -76.6875 42.6875 C-79.13176689 43.92489369 -79.13176689 43.92489369 -81.0625 46.1875 C-85.77368881 51.13278514 -92.23066279 54.36100451 -98.0625 57.8125 C-108.8093714 65.81548934 -119.95952662 77.91905324 -126 90 C-126.66 90 -127.32 90 -128 90 C-128.19335938 90.60328125 -128.38671875 91.2065625 -128.5859375 91.828125 C-128.84632813 92.62734375 -129.10671875 93.4265625 -129.375 94.25 C-129.75785156 95.43335938 -129.75785156 95.43335938 -130.1484375 96.640625 C-130.95173667 98.86627958 -131.89711662 100.90931672 -133 103 C-133.66 103 -134.32 103 -135 103 C-135.185625 104.36125 -135.185625 104.36125 -135.375 105.75 C-135.92109677 108.58970323 -136.57263803 110.52590591 -138 113 C-138.66 113 -139.32 113 -140 113 C-141.58321067 118.47774766 -141.58321067 118.47774766 -143 124 C-143.66 124 -144.32 124 -145 124 C-145.33 126.64 -145.66 129.28 -146 132 C-146.66 132 -147.32 132 -148 132 C-147.97679687 132.99 -147.95359375 133.98 -147.9296875 135 C-147.91090826 136.3333257 -147.8927104 137.66665968 -147.875 139 C-147.85179687 140.299375 -147.82859375 141.59875 -147.8046875 142.9375 C-147.86052618 146.41449955 -148.593414 149.48228278 -149.51904297 152.83984375 C-150.44596039 157.00297335 -150.47625405 161.25051865 -150.625 165.5 C-150.74875 168.635 -150.8725 171.77 -151 175 C-158.59 175 -166.18 175 -174 175 C-174 167.41 -174 159.82 -174 152 C-173.34 152 -172.68 152 -172 152 C-172 149.36 -172 146.72 -172 144 C-171.34 144 -170.68 144 -170 144 C-169.95101562 142.96101562 -169.90203125 141.92203125 -169.8515625 140.8515625 C-169.44790554 133.08046683 -168.87783799 125.58427772 -167 118 C-166.34 118 -165.68 118 -165 118 C-165 116.68 -165 115.36 -165 114 C-164.34 114 -163.68 114 -163 114 C-163 112.68 -163 111.36 -163 110 C-162.34 110 -161.68 110 -161 110 C-160.34 106.37 -159.68 102.74 -159 99 C-158.34 99 -157.68 99 -157 99 C-156.9175 98.13375 -156.835 97.2675 -156.75 96.375 C-155.88637078 92.4886685 -154.41050184 90.14095694 -152 87 C-151.01 86.505 -151.01 86.505 -150 86 C-149.608125 85.195625 -149.21625 84.39125 -148.8125 83.5625 C-146.78064556 79.56885506 -144.33311449 76.09399445 -141.71875 72.46484375 C-139.9854207 70.05138083 -139.9854207 70.05138083 -138.59765625 67.5859375 C-136.62987512 64.40092256 -134.33107215 61.55490885 -131.9375 58.6875 C-131.49083984 58.13771484 -131.04417969 57.58792969 -130.58398438 57.02148438 C-129.436333 55.64052869 -128.22269556 54.31497447 -127 53 C-126.34 53 -125.68 53 -125 53 C-124.731875 52.360625 -124.46375 51.72125 -124.1875 51.0625 C-123 49 -123 49 -120 48 C-120 47.34 -120 46.68 -120 46 C-118.35163276 44.45428908 -116.62922992 42.98693469 -114.875 41.5625 C-113.92367187 40.78003906 -112.97234375 39.99757812 -111.9921875 39.19140625 C-109 37 -109 37 -105.7578125 35.40234375 C-102.75037877 34.15666648 -102.75037877 34.15666648 -101 31 C-100.34 31 -99.68 31 -99 31 C-99 30.34 -99 29.68 -99 29 C-97.61217515 28.1533966 -96.21430603 27.32324661 -94.8125 26.5 C-94.03519531 26.0359375 -93.25789063 25.571875 -92.45703125 25.09375 C-89.75896614 23.89270353 -87.9193018 23.79258957 -85 24 C-84.505 22.515 -84.505 22.515 -84 21 C-82.02 20.67 -80.04 20.34 -78 20 C-78 19.34 -78 18.68 -78 18 C-74.53727215 15.51116436 -70.83514328 14.1139582 -66.85546875 12.6953125 C-64.89500365 12.0053517 -64.89500365 12.0053517 -62.75 10.8125 C-61 10 -61 10 -57 10 C-57 9.34 -57 8.68 -57 8 C-52.545 7.505 -52.545 7.505 -48 7 C-48 6.34 -48 5.68 -48 5 C-43.38 4.67 -38.76 4.34 -34 4 C-34 3.34 -34 2.68 -34 2 C-22.58335718 0.62361249 -11.50279789 -0.22777818 0 0 Z " fill="#F8FBFD" transform="translate(342,169)"/>
<path d="M0 0 C0.02887236 3.81248426 0.04675492 7.6249407 0.0625 11.4375 C0.07087891 12.52611328 0.07925781 13.61472656 0.08789062 14.73632812 C0.09111328 15.77080078 0.09433594 16.80527344 0.09765625 17.87109375 C0.10289307 18.82943115 0.10812988 19.78776855 0.11352539 20.77514648 C0 23 0 23 -1 24 C-2.81599668 24.28736981 -4.64140202 24.51571134 -6.46875 24.71875 C-7.59796875 24.84636719 -8.7271875 24.97398437 -9.890625 25.10546875 C-11.08171875 25.23566406 -12.2728125 25.36585938 -13.5 25.5 C-14.66015625 25.63019531 -15.8203125 25.76039063 -17.015625 25.89453125 C-20.3433022 26.26720098 -23.67155263 26.63428171 -27 27 C-28.78127974 27.19764885 -30.56253407 27.39552691 -32.34375 27.59375 C-33.5503125 27.7278125 -34.756875 27.861875 -36 28 C-36 28.66 -36 29.32 -36 30 C-39.96 30.495 -39.96 30.495 -44 31 C-44 31.66 -44 32.32 -44 33 C-44.99 33 -45.98 33 -47 33 C-47 33.66 -47 34.32 -47 35 C-50.52962253 37.08896027 -53.80445885 38.92245782 -57.625 40.4375 C-61.90059685 42.41694299 -64.41989119 45.14508966 -67.4375 48.6875 C-69 50 -69 50 -72.125 50.9375 C-73.07375 51.288125 -74.0225 51.63875 -75 52 C-75.9049261 53.9519572 -75.9049261 53.9519572 -76 56 C-77 58 -77 58 -79.125 59.0625 C-86.59963266 64.09975245 -90.09661254 71.74251632 -93 80 C-93.33 80.66 -93.66 81.32 -94 82 C-94.66 82 -95.32 82 -96 82 C-96.12375 82.556875 -96.2475 83.11375 -96.375 83.6875 C-97.05976855 86.22114364 -97.99133763 88.57921032 -99 91 C-99.66 91 -100.32 91 -101 91 C-101.12375 92.175625 -101.2475 93.35125 -101.375 94.5625 C-101.86180269 98.51951043 -102.90442285 102.16547997 -104 106 C-104.42289311 108.66422657 -104.71743134 111.31559775 -105 114 C-105.66 114 -106.32 114 -107 114 C-107 119.28 -107 124.56 -107 130 C-110.64588169 130.02682987 -114.29156846 130.04675569 -117.9375 130.0625 C-118.97841797 130.07087891 -120.01933594 130.07925781 -121.09179688 130.08789062 C-122.08115234 130.09111328 -123.07050781 130.09433594 -124.08984375 130.09765625 C-125.00628662 130.10289307 -125.92272949 130.10812988 -126.86694336 130.11352539 C-129 130 -129 130 -130 129 C-130.0931547 125.76936111 -129.85279023 122.53905578 -129.6875 119.3125 C-129.65205078 118.41337891 -129.61660156 117.51425781 -129.58007812 116.58789062 C-129.33959542 111.69568268 -128.76967848 107.61504388 -127 103 C-126.62468554 100.67305036 -126.28082798 98.34023315 -126 96 C-125.34 96 -124.68 96 -124 96 C-123.89042969 95.41992188 -123.78085938 94.83984375 -123.66796875 94.2421875 C-122.67585754 89.35422493 -121.2778109 85.46071302 -119 81 C-118.44686889 79.0233697 -117.99406888 77.03641314 -117.5390625 75.03515625 C-116.69734765 71.85737772 -115.36803054 68.98479389 -114 66 C-113.34 66 -112.68 66 -112 66 C-111.67 64.35 -111.34 62.7 -111 61 C-110.34 61 -109.68 61 -109 61 C-109 60.34 -109 59.68 -109 59 C-108.34 59 -107.68 59 -107 59 C-106.7525 58.12085938 -106.505 57.24171875 -106.25 56.3359375 C-104.93163545 52.81755211 -103.36771871 50.52371445 -101 47.625 C-100.29875 46.75101562 -99.5975 45.87703125 -98.875 44.9765625 C-98.25625 44.32429688 -97.6375 43.67203125 -97 43 C-96.34 43 -95.68 43 -95 43 C-95 42.01 -95 41.02 -95 40 C-93.5390625 38.39453125 -93.5390625 38.39453125 -91.625 36.8125 C-90.68527344 36.01779297 -90.68527344 36.01779297 -89.7265625 35.20703125 C-88 34 -88 34 -86 34 C-86 33.34 -86 32.68 -86 32 C-84.3203125 30.4921875 -84.3203125 30.4921875 -82.125 28.875 C-81.40570313 28.33617187 -80.68640625 27.79734375 -79.9453125 27.2421875 C-78 26 -78 26 -76 26 C-75.505 24.515 -75.505 24.515 -75 23 C-73.00390625 21.83203125 -73.00390625 21.83203125 -70.5625 20.8125 C-69.75941406 20.46832031 -68.95632813 20.12414062 -68.12890625 19.76953125 C-66 19 -66 19 -64 19 C-64 18.34 -64 17.68 -64 17 C-59.34525646 14.15015702 -55.29860806 12.2976183 -50 11 C-50 10.34 -50 9.68 -50 9 C-45.545 8.505 -45.545 8.505 -41 8 C-41 7.34 -41 6.68 -41 6 C-27.02318625 1.61606884 -14.67602321 -0.0565187 0 0 Z " fill="#F7FAFD" transform="translate(343,214)"/>
<path d="M0 0 C3.63 0 7.26 0 11 0 C11 7.26 11 14.52 11 22 C2.125 22.8125 2.125 22.8125 -0.66748047 23.04614258 C-1.39338379 23.11986084 -2.11928711 23.1935791 -2.8671875 23.26953125 C-3.61081543 23.33760986 -4.35444336 23.40568848 -5.12060547 23.47583008 C-7.39845252 23.89086688 -7.39845252 23.89086688 -9 27 C-10.258125 27.33 -11.51625 27.66 -12.8125 28 C-19.556761 30.02982613 -24.33147004 34.98361635 -29.44042969 39.62133789 C-31.0010734 41.00094889 -32.61355236 42.28889711 -34.24609375 43.58203125 C-36.790135 45.81573555 -38.03446331 47.2705129 -39.375 50.3125 C-39.85066406 51.35857422 -39.85066406 51.35857422 -40.3359375 52.42578125 C-40.55507813 52.94527344 -40.77421875 53.46476562 -41 54 C-41.66 54 -42.32 54 -43 54 C-43.33 55.98 -43.66 57.96 -44 60 C-44.66 60 -45.32 60 -46 60 C-46.12375 61.2375 -46.2475 62.475 -46.375 63.75 C-47.01240745 69.54209379 -48.01012683 75.25873563 -49 81 C-55.93 81 -62.86 81 -70 81 C-70.27937879 72.33925762 -69.76623889 65.21638812 -67 57 C-66.34 57 -65.68 57 -65 57 C-64.91363281 56.38253906 -64.82726562 55.76507813 -64.73828125 55.12890625 C-63.79158341 49.42266333 -62.25133048 45.03341204 -59.21875 40.10546875 C-57.92464854 38.00073957 -57.92464854 38.00073957 -57.0703125 35.546875 C-53.72985875 27.59805804 -47.04797297 21.6590533 -40 17 C-39.20851563 16.45214844 -38.41703125 15.90429688 -37.6015625 15.33984375 C-31.50892857 11.16964286 -31.50892857 11.16964286 -28 10 C-27.34 9.01 -26.68 8.02 -26 7 C-19.52605037 2.56297598 -11.85027504 2.13984204 -4.28125 1.39453125 C-1.15546757 1.36134656 -1.15546757 1.36134656 0 0 Z " fill="#F8FAFD" transform="translate(331,262)"/>
<path d="M0 0 C1.30710937 -0.01417969 2.61421875 -0.02835937 3.9609375 -0.04296875 C8.16340984 0.22136586 11.06803588 0.75739962 14.20703125 3.640625 C18.57692554 10.02205792 18.47877421 16.66529988 17.625 24.1875 C16.59765625 27.11328125 16.59765625 27.11328125 15.625 29.1875 C14.635 29.1875 13.645 29.1875 12.625 29.1875 C12.398125 29.80625 12.17125 30.425 11.9375 31.0625 C10.12293406 34.00036867 8.9860164 34.3472459 5.625 35.1875 C-0.42075321 35.7628054 -5.17566439 35.65372374 -10.375 32.1875 C-12.75 30.125 -12.75 30.125 -14.375 28.1875 C-14.375 27.5275 -14.375 26.8675 -14.375 26.1875 C-15.035 26.1875 -15.695 26.1875 -16.375 26.1875 C-17.38673798 23.15228606 -17.54073514 20.99016921 -17.5625 17.8125 C-17.57667969 16.87664062 -17.59085937 15.94078125 -17.60546875 14.9765625 C-17.11149537 8.99864738 -14.33004299 5.43193638 -10.375 1.1875 C-6.77617994 -0.01210669 -3.79362018 0.01863271 0 0 Z " fill="#F6F9FC" transform="translate(324.375,307.8125)"/>
<path d="M0 0 C1.27351308 2.54702616 0.80191925 3.4282945 0.0625 6.125 C-0.13214844 6.84945313 -0.32679688 7.57390625 -0.52734375 8.3203125 C-0.76130859 9.15175781 -0.76130859 9.15175781 -1 10 C-1.66 10 -2.32 10 -3 10 C-3.2165625 11.60875 -3.2165625 11.60875 -3.4375 13.25 C-4 17 -4 17 -4.5 18.8125 C-5.17834015 21.78023818 -5.35004755 24.71496506 -5.5625 27.75 C-5.706875 29.8125 -5.85125 31.875 -6 34 C0.93 34 7.86 34 15 34 C15.12375 32.081875 15.2475 30.16375 15.375 28.1875 C15.75 22.375 15.75 22.375 18 19 C18 22.3 18 25.6 18 29 C17.34 29 16.68 29 16 29 C16 30.98 16 32.96 16 35 C8.41 35 0.82 35 -7 35 C-7.41753562 24.03968997 -6.32386409 15.46126867 -3 5 C-2.34 5 -1.68 5 -1 5 C-0.67 3.35 -0.34 1.7 0 0 Z " fill="#98C6E6" transform="translate(267,309)"/>
<path d="M0 0 C0.66 0.33 1.32 0.66 2 1 C-5.60826455 9.48510355 -13.4635733 17.44738134 -22 25 C-22 20.68381834 -19.86729652 19.07210341 -17 16 C-16.34 16 -15.68 16 -15 16 C-15 15.01 -15 14.02 -15 13 C-13.5390625 11.39453125 -13.5390625 11.39453125 -11.625 9.8125 C-10.99851563 9.28269531 -10.37203125 8.75289062 -9.7265625 8.20703125 C-8 7 -8 7 -6 7 C-6 6.34 -6 5.68 -6 5 C-4.04072937 3.2856382 -2.04119788 1.61594832 0 0 Z " fill="#C6DDEF" transform="translate(263,241)"/>
<path d="M0 0 C2.31 0 4.62 0 7 0 C7.02887236 3.81248426 7.04675492 7.6249407 7.0625 11.4375 C7.07087891 12.52611328 7.07925781 13.61472656 7.08789062 14.73632812 C7.09272461 16.28803711 7.09272461 16.28803711 7.09765625 17.87109375 C7.10551147 19.30859985 7.10551147 19.30859985 7.11352539 20.77514648 C7 23 7 23 6 24 C-1.62267625 25.31690624 -9.25723488 26.31603123 -17 26 C-16.01 25.67 -15.02 25.34 -14 25 C-14 24.34 -14 23.68 -14 23 C-12.35473791 22.82778565 -10.70874089 22.66259169 -9.0625 22.5 C-8.14597656 22.4071875 -7.22945313 22.314375 -6.28515625 22.21875 C-2.19850488 21.94663053 1.90429879 22 6 22 C6 15.07 6 8.14 6 1 C4.02 1 2.04 1 0 1 C0 0.67 0 0.34 0 0 Z " fill="#A0C6E4" transform="translate(336,214)"/>
<path d="M0 0 C0.66 0.33 1.32 0.66 2 1 C1.29875 1.680625 0.5975 2.36125 -0.125 3.0625 C-2.21433508 5.14591628 -4.15565294 7.31115894 -6.0625 9.5625 C-9.74239645 13.89013332 -13.09335618 17.0825361 -18 20 C-18.33 20.66 -18.66 21.32 -19 22 C-19.66 21.67 -20.32 21.34 -21 21 C-19.71937515 19.2925002 -18.38232443 17.62626404 -17 16 C-16.34 16 -15.68 16 -15 16 C-14.7834375 15.45730469 -14.566875 14.91460937 -14.34375 14.35546875 C-12.53960874 11.19297694 -10.084037 8.83310456 -7.5 6.3125 C-7.00113281 5.81427734 -6.50226563 5.31605469 -5.98828125 4.80273438 C-2.2816578 1.1408289 -2.2816578 1.1408289 0 0 Z " fill="#75B9E2" transform="translate(245,225)"/>
<path d="M0 0 C0.33 0 0.66 0 1 0 C0.67 5.28 0.34 10.56 0 16 C-0.66 16 -1.32 16 -2 16 C-2 18.64 -2 21.28 -2 24 C-2.33 24 -2.66 24 -3 24 C-3.10152799 17.2314676 -3.03026944 10.69675136 -2 4 C-1.34 4 -0.68 4 0 4 C0 2.68 0 1.36 0 0 Z " fill="#82BDE3" transform="translate(172,297)"/>
<path d="M0 0 C0.33 0 0.66 0 1 0 C0.85980308 2.81288705 0.71312045 5.62516885 0.5625 8.4375 C0.50352539 9.64116211 0.50352539 9.64116211 0.44335938 10.86914062 C0.11328125 16.88671875 0.11328125 16.88671875 -1 18 C-1.23287008 19.68183948 -1.41264166 21.3712416 -1.5625 23.0625 C-1.64628906 23.98160156 -1.73007813 24.90070313 -1.81640625 25.84765625 C-1.87699219 26.55792969 -1.93757812 27.26820313 -2 28 C-2.33 28 -2.66 28 -3 28 C-3 22.72 -3 17.44 -3 12 C-2.34 12 -1.68 12 -1 12 C-1.020625 10.7625 -1.04125 9.525 -1.0625 8.25 C-1.06766681 5.3359175 -0.93015558 2.79046673 0 0 Z " fill="#6BB2DF" transform="translate(239,316)"/>
<path d="M0 0 C0 3.90977459 -1.24456118 4.81418467 -3.8125 7.6875 C-4.52019531 8.49574219 -5.22789062 9.30398437 -5.95703125 10.13671875 C-8 12 -8 12 -11 12 C-11.33 12.99 -11.66 13.98 -12 15 C-12.66 14.67 -13.32 14.34 -14 14 C-12.625 12 -12.625 12 -11 10 C-10.34 10 -9.68 10 -9 10 C-8.731875 9.360625 -8.46375 8.72125 -8.1875 8.0625 C-7 6 -7 6 -4 5 C-4 4.34 -4 3.68 -4 3 C-2 1.375 -2 1.375 0 0 Z " fill="#C4DCEF" transform="translate(226,212)"/>
<path d="M0 0 C-0.94101562 0.26554688 -1.88203125 0.53109375 -2.8515625 0.8046875 C-4.71941406 1.33449219 -4.71941406 1.33449219 -6.625 1.875 C-8.46964844 2.39707031 -8.46964844 2.39707031 -10.3515625 2.9296875 C-12.66214043 3.607523 -14.95427779 4.3552421 -17.2109375 5.1953125 C-20.04557387 6.01314876 -21.2916827 6.0416605 -24 5 C-17.02912569 0.97834174 -8.05362183 -2.66536532 0 0 Z " fill="#A8CCE8" transform="translate(314,194)"/>
<path d="M0 0 C1.27351308 2.54702616 0.80191925 3.4282945 0.0625 6.125 C-0.13214844 6.84945313 -0.32679688 7.57390625 -0.52734375 8.3203125 C-0.76130859 9.15175781 -0.76130859 9.15175781 -1 10 C-1.66 10 -2.32 10 -3 10 C-3.12375 10.94875 -3.2475 11.8975 -3.375 12.875 C-4.04765054 17.62254802 -5.02728241 22.30640153 -6 27 C-6.33 27 -6.66 27 -7 27 C-7.2248832 21.5957757 -6.4886411 17.18724757 -5 12.0625 C-4.80921875 11.37865234 -4.6184375 10.69480469 -4.421875 9.99023438 C-3.95595063 8.32455474 -3.47911589 6.66193325 -3 5 C-2.34 5 -1.68 5 -1 5 C-0.67 3.35 -0.34 1.7 0 0 Z " fill="#8EC0E4" transform="translate(267,309)"/>
<path d="M0 0 C0.61875 0.165 1.2375 0.33 1.875 0.5 C7.84110999 1.4545776 14.12929877 1.56552033 20 0 C20 0.66 20 1.32 20 2 C18.68 2 17.36 2 16 2 C16 2.66 16 3.32 16 4 C11.71 4 7.42 4 3 4 C3 3.34 3 2.68 3 2 C2.01 1.67 1.02 1.34 0 1 C0 0.67 0 0.34 0 0 Z " fill="#71B6E1" transform="translate(315,341)"/>
<path d="M0 0 C0.66 0 1.32 0 2 0 C0.46745644 5.87475032 -1.67669016 11.39473306 -4 17 C-4.33 17 -4.66 17 -5 17 C-5.27771418 12.32051602 -4.54837397 9.32416664 -2.5 5.125 C-2.0359375 4.15820312 -1.571875 3.19140625 -1.09375 2.1953125 C-0.7328125 1.47085937 -0.371875 0.74640625 0 0 Z " fill="#8FC2E5" transform="translate(223,293)"/>
<path d="M0 0 C-1.32 0.33 -2.64 0.66 -4 1 C-4 1.66 -4 2.32 -4 3 C-4.969375 3.28875 -5.93875 3.5775 -6.9375 3.875 C-10.10664203 4.64214682 -10.10664203 4.64214682 -11 7 C-12.32 6.67 -13.64 6.34 -15 6 C-13.48400735 2.9680147 -11.1403567 2.58975563 -8.0625 1.3125 C-6.98097656 0.85488281 -5.89945312 0.39726562 -4.78515625 -0.07421875 C-2 -1 -2 -1 0 0 Z " fill="#98C6E6" transform="translate(268,186)"/>
<path d="M0 0 C0.66 0.33 1.32 0.66 2 1 C1.01 1.33 0.02 1.66 -1 2 C-1 2.66 -1 3.32 -1 4 C-1.99 4 -2.98 4 -4 4 C-4 4.66 -4 5.32 -4 6 C-5.98 6.33 -7.96 6.66 -10 7 C-9.34 6.01 -8.68 5.02 -8 4 C-7.01 4 -6.02 4 -5 4 C-5 3.34 -5 2.68 -5 2 C-2.625 0.9375 -2.625 0.9375 0 0 Z " fill="#82BEE4" transform="translate(272,207)"/>
<path d="M0 0 C0 4.28771267 -1.77364102 7.38968814 -4 11 C-6.25 13 -6.25 13 -8 14 C-7.67 12.35 -7.34 10.7 -7 9 C-6.34 9 -5.68 9 -5 9 C-5 8.34 -5 7.68 -5 7 C-4.34 7 -3.68 7 -3 7 C-2.690625 6.030625 -2.38125 5.06125 -2.0625 4.0625 C-1 1 -1 1 0 0 Z " fill="#B1D1EA" transform="translate(239,266)"/>
<path d="M0 0 C0.95721871 3.03458696 1.00893515 4.99541482 0.1875 8.0625 C0.01605469 8.73410156 -0.15539062 9.40570313 -0.33203125 10.09765625 C-1 12 -1 12 -3 15 C-3 12.69 -3 10.38 -3 8 C-2.34 8 -1.68 8 -1 8 C-1.020625 7.05125 -1.04125 6.1025 -1.0625 5.125 C-1 2 -1 2 0 0 Z " fill="#99C5E5" transform="translate(197,293)"/>
<path d="M0 0 C1.46911544 3.81970016 0.52561108 6.30641529 -1 10 C-1.66 10.66 -2.32 11.32 -3 12 C-3 10.02 -3 8.04 -3 6 C-2.34 6 -1.68 6 -1 6 C-0.67 4.02 -0.34 2.04 0 0 Z " fill="#7EBBE2" transform="translate(288,316)"/>
<path d="M0 0 C1 2 1 2 0.0625 5.125 C-0.288125 6.07375 -0.63875 7.0225 -1 8 C-1.66 8 -2.32 8 -3 8 C-3.33 8.99 -3.66 9.98 -4 11 C-4.33 10.34 -4.66 9.68 -5 9 C-4.00390625 6.8359375 -4.00390625 6.8359375 -2.5625 4.375 C-2.08941406 3.55773437 -1.61632812 2.74046875 -1.12890625 1.8984375 C-0.75636719 1.27195312 -0.38382813 0.64546875 0 0 Z " fill="#A2CAE8" transform="translate(190,256)"/>
<path d="M0 0 C1.33332095 2.6666419 0.67102033 4.16680303 0 7 C-0.66 7 -1.32 7 -2 7 C-2.33 8.32 -2.66 9.64 -3 11 C-3 8.69 -3 6.38 -3 4 C-2.34 4 -1.68 4 -1 4 C-0.67 2.68 -0.34 1.36 0 0 Z " fill="#CADFF0" transform="translate(220,306)"/>
<path d="M0 0 C0.66 0.33 1.32 0.66 2 1 C0.625 2.5 0.625 2.5 -1 4 C-1.66 4 -2.32 4 -3 4 C-3 4.66 -3 5.32 -3 6 C-4.32 5.67 -5.64 5.34 -7 5 C-6.34 5 -5.68 5 -5 5 C-4.67 4.01 -4.34 3.02 -4 2 C-2.0625 0.75 -2.0625 0.75 0 0 Z " fill="#B3D2EA" transform="translate(272,235)"/>
<path d="M0 0 C0.95465783 2.16967689 1.14401212 3.56328793 0.3984375 5.82421875 C-0.35870385 7.5684743 -1.17609198 9.28627131 -2 11 C-2.95465783 8.83032311 -3.14401212 7.43671207 -2.3984375 5.17578125 C-1.64129615 3.4315257 -0.82390802 1.71372869 0 0 Z " fill="#5FAFDF" transform="translate(202,282)"/>
<path d="M0 0 C0.66 0.33 1.32 0.66 2 1 C-0.25 3.5625 -0.25 3.5625 -3 6 C-4.32 5.67 -5.64 5.34 -7 5 C-4.69 3.35 -2.38 1.7 0 0 Z " fill="#87C0E5" transform="translate(285,253)"/>
</svg>
