<?xml version="1.0" encoding="UTF-8"?>
<svg version="1.1" xmlns="http://www.w3.org/2000/svg" width="512" height="512">
<path d="M0 0 C1.04679932 0.72908569 1.04679932 0.72908569 2.11474609 1.47290039 C16.36110501 11.71300429 28.13028027 26.91725022 35.0625 43 C35.3125 46 35.3125 46 35.0625 48 C35.7225 48 36.3825 48 37.0625 48 C37.17722656 48.88042969 37.29195313 49.76085937 37.41015625 50.66796875 C38.20528168 54.58276663 39.04926005 57.53368938 41.0625 61 C44.8283886 63.05451098 48.28875308 64.10531818 52.43359375 65.0703125 C55.88490986 65.95450328 58.10506596 67.08636621 61.0625 69 C62.279375 69.4125 63.49625 69.825 64.75 70.25 C70.16077876 72.20276226 74.49667959 75.57037453 79.0625 79 C79.93261719 79.64066406 80.80273438 80.28132813 81.69921875 80.94140625 C86.38878951 84.46778678 86.38878951 84.46778678 88.0625 86 C88.0625 86.66 88.0625 87.32 88.0625 88 C88.64 88.226875 89.2175 88.45375 89.8125 88.6875 C92.64623895 90.34051439 94.09394113 92.39642213 96.0625 95 C96.52011719 95.44730469 96.97773438 95.89460938 97.44921875 96.35546875 C103.99288495 103.02588878 113.62688687 115.30244809 114.25 124.8828125 C114.188125 125.58148438 114.12625 126.28015625 114.0625 127 C114.7225 127 115.3825 127 116.0625 127 C117.99357041 132.35598774 119.3568618 137.35489443 120.0625 143 C120.3925 143.33 120.7225 143.66 121.0625 144 C122.44393631 150.77098361 122.20972743 157.6169071 122.1875 164.5 C122.19136719 165.69753906 122.19523437 166.89507812 122.19921875 168.12890625 C122.18685826 179.29043015 120.33957823 188.59457573 116.625 199.125 C116.21378906 200.30320312 115.80257813 201.48140625 115.37890625 202.6953125 C114.17733523 205.71171928 112.77569054 208.25510907 111.0625 211 C110.670625 212.03125 110.27875 213.0625 109.875 214.125 C100.28462491 237.03257987 76.22721023 253.57746885 54.3515625 263.19140625 C51.50618297 264.19651472 49.05665917 264.13926322 46.0625 264 C46.0625 264.66 46.0625 265.32 46.0625 266 C38.26072162 268.52742835 31.23973649 269.43246167 23.06321716 269.38095093 C21.90522883 269.3856309 20.7472405 269.39031087 19.55416161 269.39513266 C15.700621 269.40703283 11.8474393 269.39764466 7.99389648 269.38818359 C5.22034986 269.39060218 2.44681814 269.39748667 -0.32672119 269.40411377 C-7.06169341 269.41741234 -13.79656499 269.41459086 -20.53154106 269.40587585 C-26.00745986 269.39908494 -31.48335057 269.39818864 -36.95927238 269.4014473 C-37.740322 269.401907 -38.52137161 269.40236669 -39.32608939 269.40284032 C-40.91304621 269.40379955 -42.50000303 269.40477219 -44.08695983 269.4057581 C-58.94684214 269.41430049 -73.80666881 269.40449567 -88.66654199 269.388357 C-101.40329216 269.37495222 -114.13996029 269.37728545 -126.87670898 269.39111328 C-141.68704052 269.40718492 -156.49732339 269.41347939 -171.30766243 269.40427649 C-172.8882894 269.40332089 -174.46891639 269.40237778 -176.04954338 269.4014473 C-176.8271346 269.40098447 -177.60472582 269.40052164 -178.40588041 269.40004479 C-183.87258926 269.39745985 -189.3392671 269.40181513 -194.80597115 269.40888596 C-201.47174753 269.41731866 -208.13741799 269.41498361 -214.80318231 269.39904372 C-218.20096992 269.39118504 -221.59843588 269.38965584 -224.99624443 269.39799118 C-228.68607155 269.40620744 -232.375405 269.39588323 -236.06520081 269.38095093 C-237.12970744 269.38764309 -238.19421408 269.39433526 -239.29097849 269.40123022 C-245.98863236 269.34877661 -251.64451597 268.27469391 -257.9375 266 C-258.66066754 265.74614293 -259.38383509 265.49228585 -260.1289168 265.23073614 C-262.08563406 264.53191677 -264.01152503 263.7794712 -265.9375 263 C-266.64519531 262.71382813 -267.35289062 262.42765625 -268.08203125 262.1328125 C-275.41300307 259.02581568 -282.82761115 255.15915099 -288.9375 250 C-288.9375 249.34 -288.9375 248.68 -288.9375 248 C-289.741875 247.6596875 -289.741875 247.6596875 -290.5625 247.3125 C-296.15097064 244.22413465 -300.15240437 239.87670213 -303.9375 234.8125 C-304.36683838 234.24442627 -304.79617676 233.67635254 -305.23852539 233.09106445 C-310.6475813 225.83451703 -315.06692548 218.61172355 -317.9375 210 C-318.494375 208.4840625 -318.494375 208.4840625 -319.0625 206.9375 C-319.9375 204 -319.9375 204 -320.4375 200.3125 C-320.71747994 196.87037035 -320.71747994 196.87037035 -322.9375 194 C-323.12097848 191.40935758 -323.1937393 188.92908851 -323.16796875 186.33984375 C-323.16751053 185.59416641 -323.16705231 184.84848907 -323.1665802 184.08021545 C-323.16356211 182.50585333 -323.15568902 180.93149408 -323.14331055 179.35717773 C-323.1250423 176.94308945 -323.12280101 174.5293846 -323.12304688 172.11523438 C-323.11813189 170.58593417 -323.11230366 169.05663658 -323.10546875 167.52734375 C-323.10435593 166.80336899 -323.1032431 166.07939423 -323.10209656 165.33348083 C-323.0535841 160.2321682 -323.0535841 160.2321682 -321.9375 158 C-321.2775 158 -320.6175 158 -319.9375 158 C-319.99035156 156.84113281 -320.04320312 155.68226563 -320.09765625 154.48828125 C-320.09069482 149.96633846 -319.03070771 146.36079068 -317.375 142.1875 C-316.97716309 141.15689453 -316.97716309 141.15689453 -316.57128906 140.10546875 C-314.1194327 134.00003315 -311.13482648 128.10602603 -306.9375 123 C-306.2775 123 -305.6175 123 -304.9375 123 C-304.710625 122.113125 -304.48375 121.22625 -304.25 120.3125 C-302.74639801 116.51769499 -301.02244714 114.63349146 -297.9375 112 C-296.9475 111.67 -295.9575 111.34 -294.9375 111 C-294.9375 110.34 -294.9375 109.68 -294.9375 109 C-293.16484547 107.36915783 -291.40627635 105.8997274 -289.5 104.4375 C-288.92886475 103.99857422 -288.35772949 103.55964844 -287.76928711 103.10742188 C-278.44521186 96.17805448 -266.9063078 89.08051631 -255.25 87.5 C-251.80787035 87.22002006 -251.80787035 87.22002006 -248.9375 85 C-246.67578125 84.8046875 -246.67578125 84.8046875 -244.25 84.875 C-243.44175781 84.89304687 -242.63351563 84.91109375 -241.80078125 84.9296875 C-241.18589844 84.95289063 -240.57101563 84.97609375 -239.9375 85 C-239.82921875 84.12214844 -239.7209375 83.24429688 -239.609375 82.33984375 C-238.03853533 74.53130935 -232.86852276 67.16377845 -227.9375 61 C-227.2775 61 -226.6175 61 -225.9375 61 C-225.66421875 60.40574219 -225.3909375 59.81148438 -225.109375 59.19921875 C-218.14208787 46.12394324 -199.34441297 38.15164761 -185.9375 34 C-184.9475 33.67 -183.9575 33.34 -182.9375 33 C-179.57217536 32.64978358 -176.19174632 32.53325671 -172.8125 32.375 C-171.89984375 32.3234375 -170.9871875 32.271875 -170.046875 32.21875 C-164.20640974 31.93587846 -158.73165755 32.20611747 -152.9375 33 C-152.56625 31.948125 -152.56625 31.948125 -152.1875 30.875 C-150.76569762 27.60485452 -149.06503712 24.858878 -146.9375 22 C-146.2775 22 -145.6175 22 -144.9375 22 C-144.5971875 21.195625 -144.5971875 21.195625 -144.25 20.375 C-142.48179911 17.17539839 -140.40079797 14.70962777 -137.9375 12 C-137.2775 12 -136.6175 12 -135.9375 12 C-135.6075 11.01 -135.2775 10.02 -134.9375 9 C-134.2775 9 -133.6175 9 -132.9375 9 C-132.9375 8.34 -132.9375 7.68 -132.9375 7 C-130.80970702 5.11726183 -128.6818411 3.35914743 -126.4375 1.625 C-125.46574829 0.87138184 -125.46574829 0.87138184 -124.47436523 0.10253906 C-120.14451791 -3.20063224 -115.95393646 -5.86256186 -110.9375 -8 C-109.14070322 -8.86902572 -107.3439877 -9.7382219 -105.54833984 -10.60961914 C-70.78607336 -27.28986577 -31.21338278 -21.78426943 0 0 Z " fill="#FEFEFE" transform="translate(354.9375,126)"/>
<path d="M0 0 C0.70253906 0.00386719 1.40507812 0.00773438 2.12890625 0.01171875 C2.83144531 0.00785156 3.53398437 0.00398437 4.2578125 0 C9.50229247 0.01010497 9.50229247 0.01010497 10.62890625 1.13671875 C10.71576228 2.6984462 10.73592844 4.26401219 10.7265625 5.828125 C10.72333984 6.77236328 10.72011719 7.71660156 10.71679688 8.68945312 C10.70841797 9.68267578 10.70003906 10.67589844 10.69140625 11.69921875 C10.68689453 12.69630859 10.68238281 13.69339844 10.67773438 14.72070312 C10.66590632 17.19276724 10.64942474 19.66471393 10.62890625 22.13671875 C9.79979736 22.22646973 8.97068848 22.3162207 8.11645508 22.40869141 C-32.33789889 26.90144381 -66.15775885 38.56595396 -96.37109375 67.13671875 C-97.14324219 67.85601562 -97.91539062 68.5753125 -98.7109375 69.31640625 C-121.87546039 91.57018722 -136.65015983 123.50878039 -140.37109375 155.13671875 C-140.70109375 155.46671875 -141.03109375 155.79671875 -141.37109375 156.13671875 C-141.51530529 157.53869277 -141.59795499 158.94714706 -141.65234375 160.35546875 C-141.68972656 161.20496094 -141.72710937 162.05445313 -141.765625 162.9296875 C-141.80042969 163.82300781 -141.83523437 164.71632813 -141.87109375 165.63671875 C-141.93968818 167.39730913 -142.01238327 169.15774616 -142.08984375 170.91796875 C-142.1352832 172.09456055 -142.1352832 172.09456055 -142.18164062 173.29492188 C-142.37109375 175.13671875 -142.37109375 175.13671875 -143.37109375 176.13671875 C-144.9328212 176.22357478 -146.49838719 176.24374094 -148.0625 176.234375 C-149.00673828 176.23115234 -149.95097656 176.22792969 -150.92382812 176.22460938 C-151.91705078 176.21623047 -152.91027344 176.20785156 -153.93359375 176.19921875 C-154.93068359 176.19470703 -155.92777344 176.19019531 -156.95507812 176.18554688 C-159.42714224 176.17371882 -161.89908893 176.15723724 -164.37109375 176.13671875 C-164.40003307 172.51173541 -164.41787167 168.88678162 -164.43359375 165.26171875 C-164.44197266 164.22917969 -164.45035156 163.19664062 -164.45898438 162.1328125 C-164.46220703 161.14667969 -164.46542969 160.16054688 -164.46875 159.14453125 C-164.47398682 158.2333252 -164.47922363 157.32211914 -164.48461914 156.38330078 C-164.37109375 154.13671875 -164.37109375 154.13671875 -163.37109375 152.13671875 C-163.04930418 149.84908744 -162.76356439 147.55633528 -162.49609375 145.26171875 C-161.2893018 135.67749205 -159.23479558 126.64382193 -155.4453125 117.7265625 C-154.70762785 115.94807187 -154.02522111 114.1459521 -153.390625 112.328125 C-147.71536914 96.24481868 -138.6723191 81.64393771 -128.37109375 68.13671875 C-127.675 67.19441406 -126.97890625 66.25210938 -126.26171875 65.28125 C-122.81221151 60.68428271 -122.81221151 60.68428271 -121.37109375 59.13671875 C-120.71109375 59.13671875 -120.05109375 59.13671875 -119.37109375 59.13671875 C-119.12230469 58.56308594 -118.87351563 57.98945313 -118.6171875 57.3984375 C-106.04887789 34.58636457 -68.25163766 16.2310457 -44.30859375 8.88671875 C-43.28636719 8.5928125 -42.26414062 8.29890625 -41.2109375 7.99609375 C-38.41193079 7.2036922 -38.41193079 7.2036922 -35.9765625 6.125 C-32.63662645 4.85812771 -29.24819945 4.20642192 -25.74609375 3.57421875 C-24.6940979 3.37916748 -24.6940979 3.37916748 -23.62084961 3.18017578 C-18.53332609 2.26743302 -13.47423948 1.67074576 -8.3125 1.34765625 C-5.42247293 1.03364928 -3.26828538 0.00629727 0 0 Z " fill="#1FA1DC" transform="translate(332.37109375,167.86328125)"/>
<path d="M0 0 C1.62200515 1.62200515 1.1299075 3.42023031 1.1328125 5.65625 C1.13410156 6.59597656 1.13539063 7.53570312 1.13671875 8.50390625 C1.13285156 9.49261719 1.12898437 10.48132813 1.125 11.5 C1.12886719 12.48871094 1.13273438 13.47742188 1.13671875 14.49609375 C1.13478516 15.90568359 1.13478516 15.90568359 1.1328125 17.34375 C1.13168457 18.21193359 1.13055664 19.08011719 1.12939453 19.97460938 C1 22 1 22 0 23 C-1.57378137 23.26198456 -3.15703305 23.46758095 -4.7421875 23.6484375 C-6.21945312 23.82632813 -6.21945312 23.82632813 -7.7265625 24.0078125 C-9.78608611 24.24800508 -11.84597272 24.48511031 -13.90625 24.71875 C-37.60572433 27.59698073 -58.23736815 38.62204929 -74.62109375 55.73828125 C-77 58 -77 58 -80 59 C-81.04611473 60.8361089 -81.04611473 60.8361089 -82 63 C-83.02266541 64.4510793 -84.06656329 65.88730267 -85.125 67.3125 C-98.34508936 86.02486031 -104.73169139 107.18770089 -106 130 C-109.64581687 130.02887512 -113.29160463 130.04675585 -116.9375 130.0625 C-117.97841797 130.07087891 -119.01933594 130.07925781 -120.09179688 130.08789062 C-121.08115234 130.09111328 -122.07050781 130.09433594 -123.08984375 130.09765625 C-124.00628662 130.10289307 -124.92272949 130.10812988 -125.86694336 130.11352539 C-128 130 -128 130 -129 129 C-128.83591628 99.42390862 -117.94436365 72.22428958 -100 49 C-99.41476563 48.19949219 -98.82953125 47.39898437 -98.2265625 46.57421875 C-97.65679687 45.80722656 -97.08703125 45.04023438 -96.5 44.25 C-96.0153125 43.59515625 -95.530625 42.9403125 -95.03125 42.265625 C-83.57480543 29.48728298 -68.24095427 19.2334975 -52.85302734 11.88867188 C-51.26828214 11.12866232 -49.7039765 10.32628053 -48.14453125 9.515625 C-34.59853046 3.03275313 -15.07862717 -0.73554279 0 0 Z " fill="#1FA1DC" transform="translate(342,214)"/>
<path d="M0 0 C2.30009773 2.30009773 1.18537365 7.84790666 1.1875 10.9375 C1.19974609 11.87013672 1.21199219 12.80277344 1.22460938 13.76367188 C1.22654297 14.65505859 1.22847656 15.54644531 1.23046875 16.46484375 C1.23457764 17.285896 1.23868652 18.10694824 1.24291992 18.95288086 C1 21 1 21 -1 23 C-3.20217039 23.26567739 -5.41285852 23.4620001 -7.625 23.625 C-22.38625772 25.18903535 -36.42364649 33.94284561 -45.75 45.3125 C-54.24951753 57.07183249 -57.77797516 68.80984138 -60 83 C-63.47914941 83.02887814 -66.95826831 83.04675687 -70.4375 83.0625 C-71.92733398 83.07506836 -71.92733398 83.07506836 -73.44726562 83.08789062 C-74.39150391 83.09111328 -75.33574219 83.09433594 -76.30859375 83.09765625 C-77.18314209 83.10289307 -78.05769043 83.10812988 -78.95874023 83.11352539 C-81 83 -81 83 -82 82 C-81.87507334 59.8255183 -72.74736117 39.63085569 -57.62744141 23.60498047 C-42.63149931 8.81600307 -21.19366811 -0.86504768 0 0 Z " fill="#20A1DC" transform="translate(342,261)"/>
<path d="M0 0 C5.15296619 2.42021118 8.53505898 5.87204234 11 11 C11.3984375 14.375 11.3984375 14.375 11.375 18 C11.38660156 19.794375 11.38660156 19.794375 11.3984375 21.625 C10.82494098 26.48285284 9.06063144 28.99375992 5.5625 32.3125 C3 34 3 34 -1 34 C-1 34.66 -1 35.32 -1 36 C-7.54779088 36.47620297 -12.37574354 35.50310831 -18 32 C-21.57627407 28.74652502 -23.76208441 25.44936048 -24.23828125 20.546875 C-24.43566741 13.10853337 -23.66773603 9.1183436 -18.6328125 3.46484375 C-13.33604192 -1.26535684 -6.71932294 -1.17650291 0 0 Z " fill="#1FA1DC" transform="translate(331,308)"/>
</svg>
